<?xml version="1.0" encoding="UTF-8"?>
<svg width="752pt" height="752pt" version="1.1" viewBox="0 0 752 752" xmlns="http://www.w3.org/2000/svg">
 <g>
  <path d="m752 376c0 134.33-71.664 258.46-188 325.62-116.34 67.168-259.66 67.168-376 0-116.34-67.164-188-191.29-188-325.62s71.664-258.46 188-325.62c116.34-67.168 259.66-67.168 376 0 116.34 67.164 188 191.29 188 325.62"/>
  <path d="m566.97 362.23-173.94-173.97-67.773-12.398 14.344 65.965 173.85 173.92c9.6367 9.1602 23.375 12.594 36.188 9.043 12.812-3.5469 22.824-13.559 26.375-26.375 3.5469-12.812 0.11328-26.547-9.0469-36.184z" fill="#cfcfd2"/>
  <path d="m375.44 414.8c-14.055-23.562-29.547-44.516-43.672-65.965l0.003907 0.003906c-14.34-20.148-25.953-42.102-34.539-65.289-3.6523-10.297-4.6602-21.348-2.9258-32.137 1.4922-10.652 5.6875-20.746 12.18-29.328 4.7109-5.7422 3.875-14.219-1.8711-18.934-5.7461-4.7109-14.223-3.875-18.934 1.8711-9.7344 11.992-16.234 26.285-18.875 41.504-2.8125 15.066-1.9062 30.59 2.6367 45.227 8.6562 26.148 20.797 51.008 36.094 73.914 13.938 22.527 28.871 44.078 40.949 65.727 5.7891 9.6484 10.129 20.094 12.887 31 1.3711 9.6758-0.67578 10.367-4.3984 12.531v0.003907c-8.0117 0.50391-15.965-1.7148-22.562-6.293-10.707-5.9922-21.031-12.641-30.918-19.906-10.57-7.4258-21.227-15.223-33.152-22.73l0.003906-0.003906c-13.312-9.3242-28.602-15.438-44.672-17.859-11.879-1.0977-23.699 2.6328-32.793 10.352-8.4375 7.3516-14.094 17.375-16.02 28.398-2.1133 16.789 0.35938 33.84 7.1562 49.336 10.863 26.094 25.555 50.422 43.586 72.188 4.457 5.7422 11.637 8.668 18.836 7.6797 7.1992-0.98828 13.324-5.7461 16.07-12.477 2.7422-6.7266 1.6875-14.41-2.7695-20.148l-0.57422-0.76172c-14.793-18.875-27.199-39.504-36.941-61.414-3.9414-8.457-5.7656-17.742-5.3086-27.062 0.22656-1.9609 1.1211-3.7812 2.5352-5.1602 0.91406-0.72656 0.50781-0.98047 3.3828-1.0664v0.003906c9.7656 1.8398 19.051 5.6602 27.281 11.23 10.387 6.0898 21.008 13.395 31.984 20.684 11.41 7.875 23.309 15.023 35.621 21.395 7.0781 3.6602 14.574 6.4492 22.324 8.3047 9.9297 2.5156 20.391 1.9258 29.973-1.6914 10.52-4.2773 18.902-12.574 23.289-23.051 3.5352-9.4102 4.1602-19.664 1.793-29.43-3.7695-14.375-9.7227-28.082-17.66-40.645z" fill="#cfcfd2"/>
 </g>
</svg>
