<?xml version="1.0" standalone="no"?>
<!DOCTYPE svg PUBLIC "-//W3C//DTD SVG 20010904//EN"
 "http://www.w3.org/TR/2001/REC-SVG-20010904/DTD/svg10.dtd">
<svg version="1.0" xmlns="http://www.w3.org/2000/svg"
 width="700.000000pt" height="700.000000pt" viewBox="0 0 700.000000 700.000000"
 preserveAspectRatio="xMidYMid meet">
<metadata>
Created by potrace 1.14, written by Peter Selinger 2001-2017
</metadata>
<g transform="translate(0.000000,700.000000) scale(0.100000,-0.100000)"
fill="#000000" stroke="none">
<path d="M3278 6995 c-2 -1 -42 -5 -89 -9 -47 -4 -95 -8 -105 -10 -10 -2 -41
-7 -69 -10 -27 -4 -72 -11 -100 -16 -27 -5 -63 -12 -80 -15 -16 -3 -41 -7 -55
-10 -14 -3 -36 -8 -50 -11 -281 -57 -726 -231 -980 -384 -30 -18 -64 -38 -75
-44 -26 -15 -228 -148 -235 -156 -3 -3 -43 -34 -90 -70 -47 -35 -87 -67 -90
-70 -3 -3 -23 -20 -45 -39 -58 -48 -219 -206 -299 -292 -419 -449 -741 -1089
-852 -1694 -9 -49 -17 -97 -19 -105 -2 -9 -6 -43 -10 -75 -4 -33 -9 -69 -11
-80 -25 -135 -24 -718 1 -815 2 -8 6 -40 10 -71 3 -31 8 -67 10 -80 3 -13 7
-38 9 -54 17 -124 143 -572 185 -660 6 -11 22 -49 37 -85 32 -80 142 -300 196
-395 195 -337 486 -683 780 -926 99 -82 96 -79 163 -129 33 -25 62 -48 63 -52
2 -5 8 -8 13 -8 4 0 48 -26 96 -58 48 -32 121 -78 160 -101 73 -42 327 -171
337 -171 3 0 29 -11 58 -24 224 -101 601 -206 863 -241 22 -2 56 -7 75 -10
197 -27 662 -27 850 1 354 52 629 125 907 240 476 196 943 527 1268 898 33 38
67 76 75 85 13 14 67 82 92 116 4 6 18 24 31 40 80 102 212 311 296 470 134
254 277 648 326 904 59 309 70 422 69 731 0 208 -8 365 -19 410 -3 8 -7 38
-10 66 -3 28 -7 59 -9 70 -2 10 -11 60 -21 109 -115 618 -426 1235 -855 1699
-78 84 -252 252 -320 307 -36 30 -67 56 -70 60 -3 3 -48 37 -100 76 -414 305
-878 515 -1367 617 -97 21 -161 31 -393 62 -45 6 -546 14 -552 9z"/>
</g>
</svg>
